<?xml version="1.0" standalone="no"?>
<!DOCTYPE svg PUBLIC "-//W3C//DTD SVG 20010904//EN"
 "http://www.w3.org/TR/2001/REC-SVG-20010904/DTD/svg10.dtd">
<svg version="1.0" xmlns="http://www.w3.org/2000/svg"
 width="1135.000000pt" height="1135.000000pt" viewBox="0 0 1135.000000 1135.000000"
 preserveAspectRatio="xMidYMid meet">
<metadata>
Created by potrace 1.14, written by Peter Selinger 2001-2017
</metadata>
<g transform="translate(0.000000,1135.000000) scale(0.100000,-0.100000)"
fill="#000000" stroke="none">
<path d="M5670 11336 c0 -8 -6 -21 -13 -28 -7 -7 -20 -28 -28 -45 -7 -18 -17
-33 -20 -33 -4 0 -12 -15 -20 -32 -7 -18 -15 -35 -18 -38 -10 -9 -42 -64 -54
-92 -6 -16 -15 -28 -19 -28 -4 0 -8 -6 -8 -14 0 -7 -7 -19 -15 -26 -8 -7 -12
-16 -9 -21 3 -5 1 -9 -5 -9 -5 0 -13 -10 -17 -22 -4 -13 -9 -25 -13 -28 -5 -4
-22 -33 -55 -95 -6 -11 -14 -22 -17 -25 -6 -5 -22 -35 -51 -90 -7 -14 -15 -27
-18 -30 -11 -10 -100 -170 -100 -180 0 -5 -4 -10 -10 -10 -5 0 -10 -6 -10 -13
0 -8 -9 -24 -20 -37 -11 -13 -20 -27 -20 -33 0 -5 -12 -28 -27 -51 -16 -22
-35 -54 -43 -71 -8 -16 -21 -36 -27 -43 -7 -7 -13 -20 -13 -28 0 -8 -4 -14 -8
-14 -4 0 -13 -12 -19 -27 -15 -37 -45 -86 -58 -95 -7 -5 -7 -8 0 -8 7 0 7 -3
0 -8 -10 -7 -25 -31 -54 -87 -9 -16 -19 -32 -22 -35 -4 -3 -19 -30 -35 -60
-15 -30 -31 -57 -34 -60 -7 -5 -34 -51 -35 -60 0 -3 -13 -24 -28 -47 -15 -24
-27 -47 -27 -53 0 -5 -4 -10 -9 -10 -5 0 -15 -16 -21 -35 -6 -19 -16 -35 -21
-35 -5 0 -11 -11 -15 -25 -3 -14 -10 -25 -16 -25 -5 0 -6 -4 -3 -10 3 -5 1
-10 -4 -10 -6 0 -11 -5 -11 -11 0 -6 -13 -30 -30 -53 -16 -24 -26 -46 -23 -50
4 -3 1 -6 -5 -6 -7 0 -12 -6 -12 -14 0 -8 -6 -21 -12 -28 -13 -14 -23 -29 -66
-107 -13 -25 -32 -57 -42 -71 -9 -14 -20 -32 -23 -40 -4 -8 -18 -33 -32 -55
-14 -22 -30 -51 -37 -65 -7 -14 -15 -27 -18 -30 -3 -3 -11 -16 -18 -30 -7 -14
-26 -47 -43 -75 -16 -27 -33 -58 -36 -67 -3 -10 -9 -18 -13 -18 -5 0 -14 -16
-20 -35 -6 -19 -16 -35 -21 -35 -5 0 -9 -5 -9 -11 0 -6 -8 -23 -19 -37 -10
-15 -31 -49 -45 -77 -15 -27 -32 -57 -38 -65 -7 -12 -1 -31 28 -80 21 -36 42
-66 46 -68 5 -2 8 -12 8 -22 0 -10 4 -20 8 -22 5 -1 32 -46 62 -98 30 -52 57
-96 62 -98 4 -2 8 -8 8 -14 0 -5 16 -37 36 -71 20 -34 48 -82 62 -107 14 -25
33 -57 43 -72 11 -14 19 -28 19 -31 0 -3 34 -62 75 -131 41 -69 75 -130 75
-136 0 -5 5 -10 10 -10 6 0 10 -4 10 -9 0 -6 30 -61 66 -123 37 -62 78 -133
92 -158 14 -25 33 -56 42 -70 9 -14 19 -30 21 -35 9 -25 214 -370 221 -373 5
-2 8 -8 8 -13 0 -5 24 -51 54 -102 29 -50 126 -218 216 -372 89 -154 194 -334
232 -400 118 -203 130 -225 121 -225 -4 0 -25 11 -45 25 -20 14 -42 25 -47 25
-6 0 -11 4 -11 9 0 5 -16 15 -35 22 -19 7 -35 17 -35 21 0 4 -6 8 -14 8 -7 0
-19 7 -26 15 -7 8 -16 12 -21 9 -5 -3 -9 -1 -9 5 0 5 -10 13 -22 17 -12 3 -28
13 -36 20 -7 8 -20 14 -28 14 -8 0 -14 5 -14 11 0 5 -4 7 -10 4 -5 -3 -10 -2
-10 4 0 6 -11 13 -25 17 -14 3 -25 10 -25 14 0 5 -9 11 -20 15 -17 5 -118 62
-200 113 -14 9 -25 14 -26 11 0 -2 -8 4 -18 14 -10 9 -24 17 -32 17 -8 0 -14
4 -14 9 0 5 -16 15 -35 21 -19 6 -35 15 -35 18 0 4 -10 12 -23 18 -44 22 -91
49 -105 62 -7 6 -20 12 -28 12 -8 0 -14 4 -14 9 0 5 -8 11 -17 15 -23 7 -78
39 -99 57 -10 8 -20 14 -23 13 -3 -1 -15 4 -26 11 -70 44 -157 94 -184 106
-17 8 -31 17 -31 20 0 4 -8 9 -17 12 -10 4 -36 18 -58 31 -22 14 -56 34 -75
43 -19 10 -37 20 -40 23 -10 10 -65 42 -92 53 -16 6 -28 15 -28 19 0 4 -6 8
-14 8 -7 0 -19 7 -26 15 -7 8 -16 13 -20 10 -4 -3 -13 2 -20 10 -7 8 -19 15
-26 15 -8 0 -14 4 -14 9 0 5 -8 11 -17 14 -18 6 -94 48 -103 57 -3 3 -16 11
-29 18 -61 35 -90 51 -139 81 -29 17 -57 31 -62 31 -6 0 -10 4 -10 8 0 5 -16
14 -35 22 -19 8 -35 17 -35 21 0 4 -16 13 -35 20 -19 7 -35 17 -35 21 0 4 -6
8 -14 8 -7 0 -19 7 -26 15 -7 8 -16 13 -20 10 -4 -3 -13 2 -20 10 -7 8 -19 15
-26 15 -8 0 -14 5 -14 10 0 6 -6 10 -14 10 -7 0 -19 7 -26 15 -6 8 -15 14 -18
13 -6 -2 -45 20 -107 60 -11 6 -29 16 -40 22 -11 5 -38 21 -60 35 -22 14 -51
30 -65 37 -14 7 -28 17 -32 23 -5 6 -8 6 -8 0 0 -7 -3 -7 -8 0 -4 6 -18 16
-31 23 -21 12 -30 10 -97 -32 -41 -25 -77 -46 -79 -46 -2 0 -38 -20 -78 -45
-41 -25 -79 -45 -85 -45 -6 0 -12 -4 -14 -8 -1 -4 -73 -48 -158 -97 -85 -49
-204 -118 -265 -153 -60 -36 -126 -74 -145 -84 -133 -75 -246 -143 -248 -150
-2 -4 -8 -8 -14 -8 -6 0 -97 -50 -202 -112 -105 -61 -216 -126 -246 -143 -30
-18 -111 -65 -180 -105 -69 -40 -145 -84 -170 -98 -25 -14 -47 -28 -50 -32 -3
-3 -12 -9 -21 -12 -9 -4 -151 -85 -315 -180 -164 -96 -341 -198 -391 -227 -51
-30 -93 -58 -93 -62 0 -5 10 -14 23 -19 12 -5 40 -21 62 -35 22 -14 51 -30 65
-37 14 -7 27 -15 30 -19 3 -3 30 -19 60 -35 30 -16 61 -35 68 -41 7 -7 20 -13
28 -13 8 0 14 -5 14 -11 0 -5 5 -7 10 -4 6 3 10 2 10 -3 0 -5 8 -12 18 -16 9
-3 35 -17 57 -31 22 -14 47 -28 55 -32 8 -4 43 -24 78 -45 34 -21 67 -38 72
-38 6 0 10 -4 10 -8 0 -5 16 -14 35 -22 19 -8 35 -16 35 -19 0 -4 15 -12 32
-20 18 -8 35 -17 38 -21 3 -4 30 -20 60 -37 30 -16 90 -51 133 -76 43 -26 83
-47 88 -47 5 0 9 -5 9 -11 0 -5 5 -7 10 -4 6 3 10 2 10 -3 0 -5 8 -12 18 -16
19 -6 74 -37 94 -53 7 -6 40 -25 73 -43 33 -17 65 -35 70 -40 10 -7 69 -41
135 -76 19 -11 37 -22 40 -25 3 -3 12 -8 20 -12 8 -4 33 -18 55 -32 22 -14 47
-28 55 -31 8 -4 23 -14 33 -22 9 -8 17 -11 17 -6 0 5 4 5 8 -1 8 -12 34 -28
82 -52 19 -9 41 -23 48 -30 7 -7 20 -13 28 -13 8 0 14 -4 14 -8 0 -5 16 -14
35 -22 19 -8 35 -17 35 -21 0 -4 10 -11 23 -15 12 -4 24 -9 27 -13 7 -8 57
-37 100 -57 19 -9 37 -19 40 -23 8 -10 42 -30 80 -47 19 -9 37 -19 40 -23 7
-10 151 -91 161 -91 5 0 9 -5 9 -11 0 -5 4 -7 10 -4 6 3 10 2 10 -4 0 -5 10
-13 22 -17 13 -4 25 -9 28 -13 5 -6 35 -23 100 -58 19 -10 37 -21 40 -25 3 -4
17 -12 30 -17 30 -13 63 -33 70 -43 3 -4 21 -14 40 -22 l35 -14 155 90 c85 50
202 118 260 151 58 34 107 65 108 69 2 4 9 8 15 8 6 0 40 18 76 39 36 21 183
107 326 190 143 82 265 155 272 161 7 5 15 10 18 10 4 0 207 117 555 320 68
40 138 81 155 90 165 93 441 256 443 262 2 4 8 8 13 8 9 0 270 148 294 167 29
22 135 73 135 65 0 -5 -8 -20 -17 -33 -10 -13 -24 -35 -32 -49 -8 -14 -36 -62
-63 -108 -26 -46 -48 -88 -48 -93 0 -5 -4 -9 -9 -9 -5 0 -14 -15 -22 -32 -7
-18 -16 -35 -19 -38 -4 -3 -21 -32 -39 -65 -18 -32 -41 -71 -52 -86 -10 -14
-16 -29 -12 -33 3 -3 1 -6 -5 -6 -7 0 -12 -5 -12 -11 0 -6 -8 -23 -19 -37 -10
-15 -29 -47 -43 -72 -14 -25 -35 -61 -47 -80 -11 -19 -26 -46 -33 -60 -7 -14
-15 -27 -18 -30 -3 -3 -11 -16 -18 -30 -7 -14 -23 -43 -37 -65 -14 -22 -30
-49 -36 -60 -18 -35 -34 -62 -48 -79 -7 -9 -10 -16 -7 -16 4 0 0 -7 -8 -16 -9
-8 -16 -22 -16 -30 0 -8 -4 -14 -9 -14 -5 0 -14 -12 -20 -27 -6 -16 -22 -46
-36 -68 -14 -22 -31 -51 -38 -65 -6 -14 -17 -31 -24 -38 -7 -7 -13 -20 -13
-28 0 -8 -5 -14 -11 -14 -5 0 -7 -5 -4 -10 3 -6 2 -10 -4 -10 -5 0 -13 -10
-17 -22 -4 -13 -9 -25 -13 -28 -5 -4 -22 -33 -55 -95 -6 -11 -13 -22 -16 -25
-4 -4 -24 -39 -54 -95 -6 -11 -13 -22 -16 -25 -3 -3 -11 -16 -18 -29 -28 -48
-53 -92 -74 -128 -12 -21 -28 -51 -36 -68 -9 -16 -18 -32 -22 -35 -4 -3 -20
-30 -36 -60 -16 -30 -35 -60 -41 -68 -7 -7 -13 -20 -13 -28 0 -8 -5 -14 -11
-14 -5 0 -7 -5 -4 -10 3 -6 3 -10 -2 -10 -4 0 -13 -10 -19 -23 -20 -41 -49
-92 -55 -97 -4 -3 -9 -15 -13 -27 -4 -13 -12 -23 -17 -23 -6 0 -7 -4 -4 -10 3
-5 2 -10 -3 -10 -5 0 -12 -8 -16 -17 -3 -10 -15 -33 -26 -50 -49 -79 -61 -100
-77 -133 -10 -19 -21 -37 -24 -40 -7 -6 -34 -54 -51 -93 -7 -15 -16 -27 -20
-27 -4 0 -8 -4 -8 -10 0 -5 -13 -30 -29 -56 -16 -25 -27 -53 -24 -61 7 -19 43
-81 298 -518 109 -187 206 -353 215 -370 10 -16 33 -57 52 -90 112 -196 343
-591 347 -595 3 -3 16 -23 27 -45 51 -95 159 -280 166 -283 5 -2 8 -8 8 -12 0
-5 53 -100 118 -212 65 -112 181 -311 257 -443 77 -132 144 -245 149 -251 8
-8 14 -5 22 10 20 37 61 109 113 196 28 47 56 97 62 113 6 15 15 27 20 27 5 0
9 4 9 9 0 5 20 44 45 85 25 42 45 81 45 86 0 6 3 10 8 10 4 0 14 15 21 33 8
17 21 38 28 45 7 7 13 20 13 28 0 8 5 14 11 14 5 0 7 5 4 10 -3 6 -2 10 4 10
6 0 13 11 17 25 3 14 10 25 14 25 4 0 13 12 19 28 13 34 44 86 54 90 4 2 7 8
7 13 0 5 17 37 38 71 21 35 41 70 45 78 4 8 16 29 27 45 10 17 27 46 37 65 9
19 20 37 24 40 4 3 13 17 18 30 6 14 21 41 32 60 12 19 46 78 77 130 31 52 64
109 74 125 10 17 23 42 29 58 6 15 15 27 19 27 4 0 13 12 19 27 6 16 21 44 32
63 12 19 29 49 38 65 9 17 24 41 33 55 22 34 65 109 80 140 7 14 18 31 25 38
7 7 13 20 13 28 0 8 4 14 8 14 5 0 14 16 22 35 8 19 17 35 20 35 7 0 28 41 26
51 0 4 6 15 15 25 9 11 27 39 40 64 13 25 30 51 37 58 6 7 12 20 12 28 0 8 3
14 8 14 4 0 14 15 21 33 8 17 21 38 28 45 7 7 13 20 13 28 0 8 5 14 11 14 5 0
8 4 5 9 -3 5 1 14 9 21 8 7 15 19 15 26 0 8 4 14 9 14 5 0 13 10 17 23 4 12
18 39 31 60 13 21 32 53 42 70 10 18 35 60 55 94 l36 61 -76 134 c-42 73 -154
266 -249 428 -94 162 -234 403 -311 535 -76 132 -142 242 -146 243 -4 2 -8 8
-8 13 0 5 -32 64 -71 132 -40 67 -80 137 -90 155 -11 17 -27 47 -38 65 -10 17
-35 59 -55 92 -20 33 -36 65 -36 71 0 6 -9 19 -19 28 -11 10 -22 28 -25 42 -4
13 -11 24 -16 24 -6 0 -10 5 -10 11 0 10 -188 338 -200 349 -3 3 -16 28 -30
55 -14 28 -27 52 -30 55 -5 5 -99 166 -158 270 -14 25 -36 62 -49 84 l-25 38
44 -23 c24 -13 45 -27 48 -30 3 -4 33 -22 68 -40 35 -19 71 -39 80 -44 9 -6
51 -30 92 -55 41 -24 89 -53 105 -62 17 -10 42 -23 58 -29 15 -6 27 -15 27
-21 0 -5 5 -6 10 -3 6 3 10 3 10 -2 0 -4 26 -21 58 -38 31 -16 59 -33 62 -36
5 -6 35 -22 90 -51 14 -7 27 -15 30 -19 8 -10 55 -33 63 -31 4 1 7 -2 7 -7 0
-5 8 -11 18 -15 9 -3 35 -17 57 -31 22 -14 51 -31 65 -38 14 -6 27 -14 30 -18
3 -3 30 -19 60 -36 30 -17 71 -40 90 -52 19 -12 47 -27 63 -33 15 -7 27 -16
27 -20 0 -4 4 -8 10 -8 5 0 70 -36 146 -80 75 -44 140 -80 145 -80 5 0 9 -4 9
-9 0 -5 16 -15 35 -21 19 -6 35 -15 35 -18 0 -4 26 -20 58 -37 31 -16 59 -33
62 -36 7 -8 58 -35 93 -50 15 -6 27 -15 27 -21 0 -5 5 -6 10 -3 6 3 10 2 10
-4 0 -6 11 -13 25 -17 14 -3 25 -9 25 -13 0 -4 16 -13 35 -21 19 -8 35 -17 35
-20 0 -3 22 -17 50 -31 27 -13 50 -28 50 -32 0 -5 4 -5 10 -2 5 3 10 2 10 -4
0 -5 10 -13 23 -17 12 -3 29 -12 37 -19 8 -7 35 -24 60 -37 70 -39 122 -69
155 -90 17 -10 42 -24 58 -30 15 -7 27 -16 27 -20 0 -4 4 -8 9 -8 5 0 44 -20
85 -45 42 -25 81 -45 86 -45 6 0 10 -4 10 -10 0 -5 11 -12 25 -16 14 -3 25 -9
25 -13 0 -8 70 -37 82 -34 4 2 56 31 115 66 59 35 189 111 288 168 99 56 182
105 185 108 3 4 30 19 60 35 30 16 57 32 60 35 3 4 16 12 30 19 14 6 39 20 55
29 17 10 100 58 185 108 85 49 157 91 160 94 3 4 23 15 45 26 22 11 51 27 65
36 22 15 378 222 625 364 50 28 146 84 214 123 68 40 125 72 127 72 3 0 10 5
17 10 7 6 102 63 212 126 110 64 243 141 295 172 l95 56 -35 14 c-19 8 -37 17
-40 21 -7 8 -37 27 -80 48 -19 9 -37 20 -40 23 -3 4 -30 20 -60 37 -30 17 -71
40 -90 51 -19 12 -46 27 -60 34 -14 7 -27 15 -30 18 -3 3 -18 12 -35 20 -16 8
-46 26 -65 39 -19 12 -44 27 -55 32 -30 15 -61 33 -79 48 -9 7 -16 10 -16 5 0
-5 -4 -4 -8 1 -8 12 -36 30 -77 50 -16 9 -48 27 -70 41 -22 13 -51 30 -65 37
-14 6 -27 15 -30 19 -3 4 -17 12 -30 17 -26 11 -38 18 -107 64 -24 15 -43 25
-43 22 0 -4 -7 1 -16 9 -8 9 -22 16 -30 16 -8 0 -14 4 -14 9 0 5 -8 11 -17 14
-22 7 -96 49 -103 59 -3 4 -17 12 -30 18 -14 5 -47 24 -75 41 -27 16 -58 33
-67 36 -10 3 -18 8 -18 12 0 3 -15 13 -32 20 -18 8 -39 21 -46 28 -7 7 -20 13
-28 13 -8 0 -14 5 -14 11 0 5 -4 8 -9 5 -5 -4 -11 -3 -13 2 -3 7 -70 48 -200
120 -41 24 -104 61 -133 80 -11 6 -31 18 -45 24 -14 7 -27 15 -30 19 -3 3 -18
12 -35 20 -37 19 -78 42 -85 49 -5 5 -14 10 -89 52 -34 19 -90 52 -156 91 -16
10 -38 20 -47 23 -10 4 -18 11 -18 16 0 5 -4 6 -10 3 -5 -3 -10 -2 -10 3 0 5
-8 12 -17 16 -10 3 -31 14 -48 24 -36 23 -87 52 -135 78 -19 11 -40 25 -48 32
-7 6 -19 12 -27 12 -7 0 -15 3 -17 8 -1 4 -18 15 -35 25 l-33 18 -157 -92
c-87 -51 -239 -138 -338 -195 -99 -57 -187 -108 -195 -113 -8 -5 -82 -49 -165
-97 -82 -48 -188 -109 -235 -137 -47 -27 -114 -67 -150 -87 -36 -21 -132 -77
-215 -126 -82 -48 -163 -95 -180 -104 -16 -10 -102 -59 -190 -110 -88 -51
-181 -105 -207 -118 -27 -14 -48 -29 -48 -34 0 -4 -5 -8 -11 -8 -6 0 -54 -26
-107 -57 -54 -32 -99 -58 -102 -58 -3 0 -16 -8 -30 -17 -31 -20 -426 -251
-459 -268 l-24 -12 21 30 c12 16 22 32 22 35 0 3 32 58 70 123 39 64 70 120
70 125 0 4 7 14 15 22 8 8 28 41 45 73 47 89 64 117 78 132 6 7 12 20 12 28 0
8 5 14 11 14 5 0 7 5 4 10 -3 6 -2 10 4 10 6 0 13 11 17 25 3 14 10 25 14 25
5 0 14 16 21 35 7 19 16 35 20 35 4 0 11 9 14 21 4 12 17 36 29 54 27 42 52
88 53 99 1 5 5 12 10 15 11 8 43 61 50 84 3 9 10 17 15 17 5 0 6 5 3 10 -3 6
-2 10 3 10 5 0 13 8 16 18 8 21 28 55 45 76 7 9 10 16 7 16 -4 0 0 7 8 16 9 8
16 22 16 30 0 8 4 14 9 14 5 0 14 12 20 28 14 34 42 82 58 100 7 7 16 24 19
38 3 13 10 24 14 24 4 0 11 11 14 25 4 14 10 25 15 25 5 0 15 16 21 35 6 19
16 35 21 35 5 0 9 5 9 10 0 6 11 29 26 51 14 22 34 56 45 75 21 38 40 70 94
164 21 36 43 75 49 87 6 13 14 23 18 23 3 0 12 16 18 35 6 19 15 35 20 35 5 0
14 16 20 35 6 19 15 35 19 35 9 0 35 51 33 63 -1 4 3 7 8 7 6 0 10 4 10 10 0
5 18 38 40 72 22 35 40 69 40 76 0 6 4 12 8 12 7 0 32 42 37 60 0 3 16 30 35
60 19 30 33 57 32 59 -2 2 0 7 5 10 11 8 42 61 54 94 6 15 15 27 20 27 5 0 9
5 9 11 0 6 8 23 19 37 10 15 30 48 43 73 14 25 31 54 38 65 11 17 4 33 -48
119 -60 102 -224 383 -270 465 -14 25 -33 57 -43 72 -11 14 -19 31 -19 37 0 6
-4 11 -10 11 -5 0 -10 9 -10 19 0 11 -4 21 -8 23 -10 4 -162 266 -162 279 0 5
-4 9 -10 9 -5 0 -10 4 -10 9 0 5 -21 45 -46 88 -26 43 -56 94 -67 113 -39 71
-101 175 -107 180 -3 3 -14 23 -26 45 -11 22 -94 166 -184 320 -90 154 -178
306 -197 338 -18 31 -49 84 -68 117 -50 85 -104 179 -127 220 -11 19 -46 78
-77 130 -85 144 -89 152 -116 202 -26 50 -45 68 -45 44z"/>
</g>
</svg>
